<svg width="35" height="31" viewBox="0 0 35 31" fill="none" xmlns="http://www.w3.org/2000/svg">
<path d="M32.5894 25.0166L19.7924 2.62186C19.5134 2.1295 19.1087 1.71997 18.6198 1.43504C18.1308 1.15012 17.575 1 17.0091 1C16.4431 1 15.8873 1.15012 15.3984 1.43504C14.9094 1.71997 14.5047 2.1295 14.2257 2.62186L1.42869 25.0166C1.14665 25.5051 0.998759 26.0595 1.00001 26.6235C1.00126 27.1875 1.1516 27.7412 1.43581 28.2284C1.72001 28.7156 2.12797 29.119 2.61833 29.3978C3.10869 29.6765 3.66403 29.8206 4.22804 29.8155H29.8221C30.3834 29.815 30.9347 29.6667 31.4206 29.3857C31.9065 29.1047 32.3099 28.7007 32.5903 28.2145C32.8707 27.7282 33.0182 27.1768 33.0181 26.6155C33.0179 26.0541 32.8701 25.5028 32.5894 25.0166Z" stroke="#F97379" stroke-width="2" stroke-linecap="round" stroke-linejoin="round"/>
<path d="M17.0251 10.6201V17.0186" stroke="#F97379" stroke-width="2" stroke-linecap="round" stroke-linejoin="round"/>
<path d="M17.0251 23.4171H17.0406" stroke="#F97379" stroke-width="2" stroke-linecap="round" stroke-linejoin="round"/>
</svg>
